<?xml version="1.0" standalone="no"?>
<!DOCTYPE svg PUBLIC "-//W3C//DTD SVG 20010904//EN"
 "http://www.w3.org/TR/2001/REC-SVG-20010904/DTD/svg10.dtd">
<svg version="1.0" xmlns="http://www.w3.org/2000/svg"
 width="512.000000pt" height="512.000000pt" viewBox="0 0 512.000000 512.000000"
 preserveAspectRatio="xMidYMid meet">
<metadata>
Created by potrace 1.14, written by Peter Selinger 2001-2017
</metadata>
<g transform="translate(0.000000,512.000000) scale(0.100000,-0.100000)"
fill="#000000" stroke="none">
<path d="M1979 4599 c-266 -95 -341 -431 -140 -628 214 -210 580 -97 636 197
2 9 4 18 5 20 5 7 2 73 -4 116 -9 55 -34 115 -50 117 -6 1 -20 3 -32 4 -28 3
-103 84 -104 112 0 31 -24 51 -84 68 -65 19 -165 17 -227 -6z"/>
<path d="M3157 4610 c-167 -42 -290 -210 -282 -382 13 -288 313 -457 562 -316
150 84 227 270 179 431 -21 68 -29 80 -60 81 -32 2 -116 82 -116 111 0 30 -12
43 -55 61 -47 19 -175 27 -228 14z"/>
<path d="M4293 4605 c-181 -55 -299 -245 -265 -426 6 -33 21 -82 34 -107 31
-65 112 -143 183 -177 52 -25 72 -29 150 -29 115 0 183 25 260 96 107 98 148
243 111 382 -14 49 -23 66 -43 75 -13 6 -28 9 -33 6 -9 -5 -110 92 -102 99 2
3 2 16 -2 29 -9 36 -74 59 -171 63 -46 1 -98 -3 -122 -11z"/>
<path d="M3133 3452 c-222 -79 -322 -325 -218 -532 70 -137 203 -213 362 -204
137 7 261 92 321 222 23 49 26 71 27 152 0 103 -22 179 -54 182 -9 0 -21 2
-28 2 -22 2 -103 89 -103 111 0 11 -4 25 -8 31 -32 48 -206 69 -299 36z"/>
<path d="M4293 3455 c-271 -84 -360 -427 -163 -626 44 -44 127 -95 174 -106
11 -2 49 -6 84 -8 224 -13 408 180 389 408 -7 86 -32 143 -64 152 -14 3 -27 4
-29 2 -3 -2 -26 17 -52 42 -32 32 -46 53 -44 67 2 11 -4 28 -13 37 -41 42
-196 60 -282 32z"/>
<path d="M4352 2319 c-30 -4 -82 -21 -117 -38 -188 -93 -264 -310 -175 -499
46 -97 146 -182 245 -207 180 -45 370 49 446 221 55 123 19 349 -53 331 -23
-6 -107 78 -108 108 0 11 -4 25 -8 31 -23 35 -147 64 -230 53z"/>
<path d="M2337 1393 c-28 -25 -63 -57 -77 -71 -14 -13 -47 -43 -73 -66 l-48
-41 -112 0 c-66 0 -113 -4 -114 -10 -3 -9 34 -12 161 -14 l39 -1 -119 -122
c-65 -67 -121 -121 -124 -120 -3 0 -18 -10 -35 -22 -41 -31 -153 -84 -192 -92
-52 -10 -39 18 32 71 65 48 76 59 90 86 13 23 12 28 -3 42 -23 21 -86 7 -162
-34 l-55 -31 96 94 c53 51 126 119 163 150 37 32 62 60 56 63 -14 9 -52 -17
-115 -75 -59 -55 -292 -220 -368 -260 -28 -15 -77 -41 -107 -58 -30 -18 -68
-32 -83 -32 -26 0 -27 2 -16 23 7 12 46 55 87 95 53 52 71 77 64 84 -8 8 -46
-12 -134 -69 -111 -73 -198 -123 -213 -123 -20 0 6 38 75 110 50 53 75 87 68
91 -19 12 -40 -1 -102 -63 -32 -32 -64 -58 -70 -58 -6 0 -27 -11 -46 -23 -19
-13 -71 -43 -115 -67 l-80 -42 124 125 c111 112 121 126 102 132 -12 4 -28 2
-35 -4 -8 -7 -24 -7 -42 -2 -117 32 -281 -55 -313 -167 -19 -64 32 -72 131
-22 l63 32 -50 -53 c-28 -30 -59 -62 -69 -73 -11 -11 -61 -41 -111 -66 -164
-85 -213 -113 -262 -149 -81 -61 -114 -131 -78 -161 23 -19 82 2 157 57 62 46
82 64 263 233 70 66 116 98 200 143 61 31 120 64 132 73 22 16 23 16 20 -22
-2 -35 1 -39 23 -42 15 -1 59 17 113 47 l88 50 -21 -33 c-24 -40 -25 -59 -4
-76 20 -18 98 6 179 56 33 20 68 37 77 39 9 2 52 27 95 55 89 58 103 74 -131
-144 -199 -186 -396 -378 -396 -386 0 -17 30 -18 48 -2 11 9 104 99 208 199
231 221 244 233 320 289 84 60 204 111 204 85 0 -4 -31 -32 -70 -62 -76 -59
-105 -102 -89 -131 5 -10 18 -18 28 -18 28 0 111 31 179 67 52 28 61 30 52 14
-42 -80 30 -89 158 -20 60 32 67 34 55 17 -11 -19 -4 -51 15 -65 36 -29 167 2
260 61 28 17 42 22 42 13 0 -7 -4 -17 -9 -23 -15 -15 6 -54 29 -54 26 0 111
35 162 67 45 27 63 30 50 7 -15 -28 -2 -64 23 -64 35 0 102 27 152 60 35 24
44 27 38 13 -16 -39 -16 -51 -1 -66 14 -14 22 -14 61 -2 25 7 70 27 100 44 30
17 56 31 58 31 3 0 2 -12 -1 -27 -3 -18 1 -30 12 -39 23 -16 89 2 149 42 23
15 39 23 34 19 -4 -5 -35 -40 -69 -78 -56 -61 -77 -76 -198 -137 -228 -117
-306 -178 -315 -248 -7 -63 47 -67 137 -10 29 19 61 42 69 51 9 8 38 35 65 58
27 23 93 84 148 136 77 74 118 104 187 139 49 24 113 60 143 79 30 19 60 35
66 35 6 0 34 15 63 34 42 27 63 34 107 35 l55 2 -62 -45 c-33 -25 -68 -55 -77
-68 -22 -31 -20 -65 4 -73 36 -11 152 32 234 89 l29 20 -7 -28 c-9 -36 1 -66
22 -66 34 0 89 21 143 53 l56 34 -10 -35 c-15 -46 7 -65 60 -50 60 17 178 84
182 104 3 15 -2 14 -33 -10 -20 -15 -66 -41 -102 -58 -102 -48 -101 -27 6 87
67 71 89 100 81 108 -9 9 -17 8 -30 0 -12 -8 -30 -9 -48 -4 -43 12 -131 3
-182 -20 -25 -11 -64 -37 -86 -57 -22 -20 -51 -43 -65 -51 -120 -69 -148 -83
-187 -92 -58 -15 -66 -4 -23 33 123 105 121 104 111 129 -7 21 -14 24 -52 22
l-43 -3 28 29 c21 22 24 30 13 34 -19 7 -78 -29 -84 -51 -4 -18 -107 -90 -119
-84 -4 2 -10 0 -13 -5 -10 -15 -201 -123 -216 -123 -5 0 44 52 108 115 65 64
117 117 117 119 0 10 -34 15 -45 6 -7 -6 -23 -6 -41 -1 -79 22 -189 -9 -256
-71 -65 -62 -228 -155 -249 -143 -17 11 -9 24 78 115 60 63 83 94 76 101 -8 8
-17 7 -32 -1 -12 -6 -25 -9 -30 -6 -20 13 -95 13 -145 2 -61 -14 -114 -45
-149 -84 -12 -15 -27 -28 -33 -29 -5 -1 -45 -22 -89 -47 -74 -43 -115 -57
-115 -38 2 28 104 148 228 267 l73 69 102 2 c124 2 125 2 109 12 -7 5 -50 8
-96 7 -51 -1 -82 3 -79 8 6 11 119 118 171 163 38 34 40 44 10 44 -15 0 -54
-30 -108 -80 -149 -141 -136 -134 -264 -136 -131 -2 -129 -2 -122 -13 3 -5 51
-8 106 -7 55 0 100 -2 100 -5 0 -3 -33 -38 -74 -77 -40 -40 -94 -95 -120 -123
-25 -28 -46 -48 -46 -44 0 3 -12 -2 -27 -13 -16 -10 -55 -34 -87 -52 l-60 -34
21 35 c20 33 36 81 47 144 3 17 8 41 12 54 6 19 -3 15 -57 -29 -64 -51 -144
-103 -164 -106 -6 -1 -35 -17 -65 -36 -62 -40 -126 -65 -136 -55 -15 15 25 66
157 202 l137 140 106 0 c63 0 106 4 106 10 0 6 -37 10 -90 10 -49 0 -90 1 -90
3 0 2 28 29 62 60 102 95 148 139 148 145 0 3 -7 7 -15 11 -9 3 -35 -13 -68
-41z m-1480 -357 c9 -8 -6 -24 -70 -71 -81 -61 -189 -116 -207 -105 -37 23
123 168 201 183 26 4 69 1 76 -7z m2057 6 c18 -2 18 -4 -5 -28 -39 -43 -125
-103 -192 -135 -91 -43 -106 -37 -67 25 39 63 166 145 219 141 14 -1 35 -3 45
-3z m434 -7 c15 -15 -144 -133 -218 -162 -77 -31 -85 0 -18 66 81 81 203 130
236 96z m779 1 c18 -17 -146 -139 -230 -171 -64 -24 -76 -11 -38 41 38 53 100
102 159 124 44 18 95 20 109 6z m-1889 -53 c-24 -87 -75 -153 -118 -153 -39 0
-54 19 -32 43 16 18 16 20 -3 33 -16 12 -14 18 6 16 4 -1 40 21 80 48 41 27
75 49 76 50 1 0 -3 -17 -9 -37z m-1764 -349 c-177 -172 -271 -241 -295 -217
-26 26 6 78 87 140 39 31 260 151 278 152 5 1 -27 -33 -70 -75z m2461 -30
c-173 -166 -255 -221 -271 -181 -20 54 76 138 266 233 58 29 107 53 110 53 3
0 -44 -47 -105 -105z"/>
<path d="M4412 1038 c-72 -39 -142 -91 -142 -105 0 -15 20 -4 105 58 28 20 61
40 73 44 22 6 23 5 11 -17 -7 -12 -45 -56 -86 -97 -40 -40 -73 -77 -73 -82 0
-22 45 -5 107 43 37 28 98 71 135 95 142 92 157 73 38 -46 -44 -44 -80 -85
-80 -90 0 -25 43 -7 97 40 100 88 189 141 259 153 20 4 23 2 15 -13 -6 -10
-32 -35 -58 -57 -71 -58 -93 -86 -90 -114 1 -19 8 -25 27 -25 53 0 220 86 220
113 0 12 -4 12 -22 -1 -55 -38 -131 -78 -161 -83 l-32 -6 40 37 c22 21 55 51
73 68 36 34 50 71 33 91 -16 19 -85 5 -153 -31 -29 -15 -56 -29 -60 -31 -4 -2
-2 10 5 27 13 34 10 39 -24 45 -22 3 -102 -33 -172 -78 -30 -21 -34 -16 -12
17 17 27 9 67 -14 67 -9 0 -36 -10 -59 -22z"/>
</g>
</svg>
