<svg xmlns="http://www.w3.org/2000/svg" xmlns:xlink="http://www.w3.org/1999/xlink" version="1.1" x="0px" y="0px" viewBox="0 0 36 45" style="enable-background:new 0 0 36 36;" xml:space="preserve"><g><path d="M18.38,7.05v-1c0-0.21-0.17-0.38-0.38-0.38s-0.38,0.17-0.38,0.38v1c0,0.21,0.17,0.38,0.38,0.38S18.38,7.26,18.38,7.05z"/><path d="M4,19.68c-0.21,0-0.38,0.17-0.38,0.38S3.79,20.43,4,20.43h1c0.21,0,0.38-0.17,0.38-0.38S5.21,19.68,5,19.68H4z"/><path d="M31,19.68c-0.21,0-0.38,0.17-0.38,0.38s0.17,0.38,0.38,0.38h1c0.21,0,0.38-0.17,0.38-0.38s-0.17-0.38-0.38-0.38H31z"/><path d="M8.54,11.12c0.07,0.07,0.17,0.11,0.27,0.11S9,11.2,9.07,11.12c0.15-0.15,0.15-0.38,0-0.53L8.37,9.89   c-0.15-0.15-0.38-0.15-0.53,0s-0.15,0.38,0,0.53L8.54,11.12z"/><path d="M26.93,29.51l0.71,0.71c0.07,0.07,0.17,0.11,0.27,0.11s0.19-0.04,0.27-0.11c0.15-0.15,0.15-0.38,0-0.53l-0.71-0.71   c-0.15-0.15-0.38-0.15-0.53,0S26.78,29.36,26.93,29.51z"/><path d="M19.63,12.61c0.49,1.08,0.75,2.26,0.75,3.44c0,4.62-3.76,8.38-8.38,8.38c-0.08,0-0.16,0-0.24,0   c1.42,2.02,3.75,3.25,6.24,3.25c4.2,0,7.63-3.42,7.63-7.63C25.63,16.44,23.09,13.36,19.63,12.61z"/></g><text x="0" y="51" fill="#000000" font-size="5px" font-weight="bold" font-family="'Helvetica Neue', Helvetica, Arial-Unicode, Arial, Sans-serif">Created by businessicons13</text><text x="0" y="56" fill="#000000" font-size="5px" font-weight="bold" font-family="'Helvetica Neue', Helvetica, Arial-Unicode, Arial, Sans-serif">from the Noun Project</text></svg>